<?xml version="1.0" encoding="utf-8"?>
<!-- Generator: Adobe Illustrator 23.1.0, SVG Export Plug-In . SVG Version: 6.00 Build 0)  -->
<svg version="1.1" id="Capa_1" xmlns="http://www.w3.org/2000/svg" xmlns:xlink="http://www.w3.org/1999/xlink" x="0px" y="0px"
	 viewBox="0 0 792 612" style="enable-background:new 0 0 792 612;" xml:space="preserve">
<style type="text/css">
	.st0{fill:#FFD603;}
	.st1{fill:#51C1E4;}
	.st2{fill:#5067AE;}
	.st3{fill:#A5A4A4;}
</style>
<path class="st0" d="M225.96,130.98c0,17.44,0,34.15,0,51.16c-3.13,0.23-6.22,0.45-9.41,0.68c-0.73,3.33-1.28,6.54-2.21,9.63
	c-0.3,1-1.47,1.86-2.44,2.49c-0.72,0.47-1.85,0.27-2.62,0.69c-4.63,2.54-7.86,0.92-10.5-3.19c-0.92-1.43-2.26-2.58-3.8-4.3
	c-5.46,3.21-10.91,6.42-16.43,9.66c1.13,3.6,2.24,6.73,3.04,9.94c0.23,0.91-0.12,2.3-0.74,3.01c-1.64,1.91-3.49,3.68-5.44,5.29
	c-0.68,0.56-1.97,0.84-2.82,0.63c-2.64-0.65-5.17-1.74-7.82-2.34c-0.86-0.19-2.42,0.32-2.86,1.01c-3.05,4.76-5.88,9.66-8.84,14.61
	c2.51,2.29,4.67,4.26,6.83,6.23c0.37,0.34,0.96,0.61,1.09,1.03c0.32,1.01,0.96,2.39,0.55,3.07c-1.75,2.93,0.35,7.7-4.1,9.18
	c-2.77,0.92-5.77,1.13-8.61,1.85c-0.73,0.19-1.81,1.12-1.82,1.73c-0.14,5.87-0.08,11.75-0.08,17.82c3.44,0.68,6.69,1.39,9.98,1.93
	c1.81,0.29,2.93,0.94,3.09,2.96c0.11,1.3,0.33,2.71,0.95,3.81c2.05,3.63,0.43,5.8-2.38,8.11c-5.4,4.44-5.38,4.61-2.07,10.81
	c1.62,3.03,3.51,5.93,5.49,8.75c0.45,0.65,1.74,0.74,2.66,1c0.23,0.07,0.55-0.21,0.84-0.29c2.98-0.88,6.27-2.96,8.86-2.3
	c2.63,0.68,4.63,4.01,6.75,6.32c0.52,0.56,0.78,1.77,0.58,2.52c-0.86,3.21-1.93,6.36-3.12,10.14c5.35,3.15,10.8,6.37,16.38,9.66
	c2.45-2.75,4.75-5.16,6.83-7.74c1.09-1.35,2.13-1.62,3.61-0.92c0.55,0.26,1.15,0.53,1.73,0.55c6.03,0.18,8.32,3.85,8.48,9.29
	c0.1,3.7,2.05,4.81,5.39,4.65c1.59-0.08,3.2,0.16,4.95,0.26c0,22.67,0,45.16,0,68.13c-16.98,0-33.96,0-51.31,0
	c-2.01-11.75-7.99-22.2-14.65-32.31c-3.3-5-6.65-9.96-10.11-14.84c-18.09-25.47-30-53.71-37.64-83.85
	c-3.05-12.02-4.85-24.29-4.82-36.69c0.06-29.25,10.81-54.2,31.46-74.76c18.5-18.42,41.06-29.01,66.77-32.93
	C212.22,132.11,218.9,131.71,225.96,130.98z"/>
<path class="st0" d="M225.89,306.28c-22.63,0.59-44.88-18.53-45-44.88c-0.12-25.57,21.1-45.58,45-45.3
	C225.89,246.08,225.89,276.07,225.89,306.28z"/>
<path class="st1" d="M226.21,413.52c14.91,0,29.82-0.04,44.73,0.02c5.46,0.02,9.63,2.77,11.06,7c1.7,5.02,0.42,10.47-3.93,13.29
	c-2.32,1.5-5.46,2.4-8.23,2.42c-29.21,0.17-58.42,0.17-87.64,0.06c-8.85-0.03-13.99-6.32-12.24-14.48c0.92-4.31,3.7-6.89,7.9-7.89
	c1.56-0.37,3.22-0.41,4.83-0.41C197.2,413.5,211.7,413.52,226.21,413.52z"/>
<path class="st1" d="M226.27,442.18c12.99,0,25.98-0.02,38.98,0.01c7.64,0.01,11.85,4,11.84,11.12
	c-0.01,6.83-4.71,11.42-11.88,11.43c-26.09,0.03-52.17,0-78.26,0.02c-4.66,0-8.41-1.74-10.52-5.93c-1.98-3.93-1.9-8.05,0.37-11.94
	c2.13-3.66,5.57-4.73,9.57-4.72C199.68,442.2,212.97,442.18,226.27,442.18z"/>
<path class="st0" d="M67.79,441.94c0-3.53,0-7.06,0-10.84c3.81,0,7.47,0,11.45,0c0,3.62,0,7.11,0,10.91c3.8,0,7.3,0,10.97,0
	c0,3.91,0,7.5,0,11.45c-3.67,0-7.28,0-10.89,0l0.07,0.08c0-3.7,0-7.4,0-11.67c-4.27,0-7.97,0-11.67,0L67.79,441.94z"/>
<path class="st0" d="M379.02,148.33c-3.71,0-7.42,0-11.37,0c0-3.9,0-7.54,0-11.52c3.81,0,7.6,0,11.39,0l-0.09-0.07
	c0,3.88,0,7.76,0,11.64L379.02,148.33z"/>
<path class="st0" d="M389.89,136.82c3.72,0,7.43,0,11.34,0c0,3.81,0,7.39,0,11.51c-3.75,0-7.54,0-11.33,0l0.07,0.07
	c0-3.88,0-7.77,0-11.65L389.89,136.82z"/>
<path class="st0" d="M253.37,139.94c-3.71-0.65-7.15-1.25-10.84-1.89c0.47-3.63,0.91-7.1,1.44-11.17c3.94,0.67,7.81,1.32,11.87,2.01
	C254.97,132.77,254.19,136.27,253.37,139.94z"/>
<path class="st0" d="M350.14,251.57c-4.04-0.33-7.54-0.62-11.05-0.91c0-3.69,0-7.19,0-10.86c3.82,0,7.34,0,11.05,0
	C350.14,243.54,350.14,247.31,350.14,251.57z"/>
<path class="st0" d="M317.73,179.18c3.02-2.41,5.77-4.61,8.82-7.05c2.36,3.28,4.64,6.44,7.1,9.87c-3.3,2.09-6.33,4.01-9.59,6.08
	C321.97,185.15,319.95,182.31,317.73,179.18z"/>
<path class="st0" d="M339.52,192.58c1.62,3.86,3.12,7.43,4.72,11.24c-3.72,1.32-7.1,2.52-10.65,3.79c-1.4-3.31-2.72-6.44-4.24-10.02
	C332.61,195.98,335.81,194.4,339.52,192.58z"/>
<path class="st0" d="M349.77,227.4c-3.85,0.48-7.49,0.93-11.25,1.4c-0.63-3.67-1.21-7.02-1.84-10.74c3.67-0.85,7.21-1.67,11-2.55
	C348.4,219.65,349.06,223.38,349.77,227.4z"/>
<path class="st0" d="M293.64,157.05c-3.22-1.96-6.2-3.77-9.4-5.71c1.8-3.34,3.51-6.5,5.36-9.93c3.47,2.08,6.73,4.03,10.35,6.2
	C297.8,150.83,295.76,153.88,293.64,157.05z"/>
<path class="st0" d="M274.33,146.61c-3.52-1.31-6.78-2.52-10.3-3.82c1.13-3.55,2.2-6.94,3.4-10.74c3.82,1.39,7.37,2.67,11.3,4.1
	C277.21,139.76,275.8,143.11,274.33,146.61z"/>
<path class="st0" d="M309.64,154.85c3.08,2.84,5.88,5.41,8.76,8.06c-2.77,2.83-5.29,5.41-7.89,8.07c-2.7-2.46-5.28-4.81-8.1-7.37
	C304.82,160.69,307.1,157.92,309.64,154.85z"/>
<path class="st0" d="M67.78,453.46c-3.61,0-7.22,0-11.04,0c0-3.81,0-7.38,0-11.52c3.69,0,7.37,0,11.04,0c0,0-0.08-0.07-0.08-0.07
	c0,3.89,0,7.78,0,11.67L67.78,453.46z"/>
<path class="st0" d="M79.31,453.46c0,3.61,0,7.21,0,11.04c-3.94,0-7.52,0-11.53,0c0-3.66,0-7.35,0-11.04c0,0-0.07,0.08-0.07,0.08
	c3.89,0,7.78,0,11.67,0L79.31,453.46z"/>
<path class="st0" d="M379.04,136.81c0-3.6,0-7.21,0-11.04c3.49,0,6.98,0,10.86,0c0,3.64,0,7.34,0,11.04c0,0,0.08-0.08,0.08-0.08
	c-3.68,0-7.35,0-11.03,0L379.04,136.81z"/>
<path class="st0" d="M389.9,148.33c0,3.53,0,7.07,0,10.85c-3.63,0-7.2,0-10.88,0c0-3.65,0-7.25,0-10.84c0,0-0.07,0.06-0.07,0.06
	c3.67,0,7.35,0,11.02,0.01L389.9,148.33z"/>
<g>
	<path class="st2" d="M255.41,380.37h39.06c1.95,0,3.41,0.06,4.38,0.19c0.97,0.12,2.1,0.53,3.36,1.2c2.28,1.19,3.42,4.48,3.42,9.89
		c0,5.92-1.56,9.39-4.69,10.4c-1.44,0.51-3.64,0.76-6.59,0.76h-50.22c-5.92,0-9.39-1.6-10.4-4.82c-0.51-1.35-0.76-3.51-0.76-6.47
		v-70.51c0-4.31,0.8-7.24,2.41-8.81c1.6-1.56,4.65-2.34,9.13-2.34h49.97c1.95,0,3.41,0.06,4.38,0.19c0.97,0.12,2.1,0.53,3.36,1.2
		c2.28,1.19,3.42,4.48,3.42,9.89c0,5.92-1.56,9.39-4.69,10.4c-1.44,0.51-3.64,0.76-6.59,0.76h-38.93v12.81h25.11
		c1.95,0,3.4,0.06,4.38,0.19c0.97,0.12,2.09,0.53,3.36,1.2c2.29,1.19,3.43,4.48,3.43,9.89c0,5.92-1.61,9.39-4.82,10.4
		c-1.44,0.51-3.64,0.76-6.59,0.76h-24.86V380.37z"/>
	<path class="st2" d="M358.71,308.15c0.63-1.22,1.75-2.09,3.36-2.6c1.6-0.51,3.74-0.76,6.4-0.76s4.8,0.25,6.4,0.76
		c1.6,0.51,2.72,1.4,3.36,2.66c0.63,1.27,1.02,2.39,1.15,3.36c0.12,0.97,0.19,2.43,0.19,4.37v75.71c0,1.95-0.06,3.41-0.19,4.38
		c-0.13,0.98-0.53,2.05-1.21,3.24c-1.27,2.28-4.84,3.42-10.72,3.42c-5.88,0-9.15-2.07-9.83-6.21c-3.55,4.06-8.5,6.09-14.84,6.09
		c-7.61,0-14.54-3.32-20.8-9.95c-6.26-6.64-9.39-14.38-9.39-23.21s3.15-16.59,9.45-23.27c6.3-6.68,13.21-10.02,20.73-10.02
		c6.26,0,11.12,2.12,14.59,6.34v-26.63c0-1.95,0.06-3.4,0.19-4.38C357.69,310.48,358.07,309.38,358.71,308.15z M338.1,377.07
		c2.2,2.28,4.86,3.43,7.99,3.43s5.73-1.15,7.8-3.43c2.07-2.28,3.11-4.8,3.11-7.54c0-2.75-1-5.3-2.98-7.67s-4.67-3.55-8.05-3.55
		c-3.39,0-6.09,1.16-8.12,3.49c-2.03,2.32-3.04,4.88-3.04,7.67C334.8,372.25,335.9,374.79,338.1,377.07z"/>
	<path class="st2" d="M419.38,402.57c-8.54,0-15.62-3.24-21.24-9.7c-5.62-6.47-8.43-14.35-8.43-23.65v-22.19
		c0-2.03,0.06-3.51,0.19-4.44c0.12-0.93,0.49-2.03,1.08-3.3c1.18-2.28,4.48-3.42,9.89-3.42c5.91,0,9.38,1.6,10.4,4.82
		c0.51,1.35,0.76,3.51,0.76,6.47v22.19c0,3.47,1,6.17,2.98,8.12c1.99,1.95,4.65,2.92,7.99,2.92s6.04-1.02,8.12-3.04
		c2.07-2.03,3.11-4.69,3.11-7.99v-22.45c0-1.95,0.07-3.4,0.19-4.38c0.13-0.97,0.53-2.09,1.21-3.36c1.09-2.2,4.35-3.3,9.76-3.3
		c5.33,0,8.58,1.14,9.76,3.42c0.59,1.27,0.95,2.39,1.08,3.36c0.13,0.97,0.19,2.43,0.19,4.38v44.89c0,1.86-0.06,3.28-0.19,4.25
		c-0.12,0.97-0.53,2.05-1.2,3.23c-1.27,2.2-4.53,3.3-9.77,3.3c-5.16,0-8.33-1.01-9.51-3.04c-0.85-1.44-1.27-3.17-1.27-5.2
		c-0.34,0.59-1.1,1.44-2.28,2.54c-1.19,1.1-2.33,2.03-3.43,2.79C425.89,401.64,422.76,402.57,419.38,402.57z"/>
	<path class="st2" d="M487.48,369.4c0,3.6,1.18,6.38,3.55,8.37c2.37,1.99,4.88,2.98,7.54,2.98c2.67,0,5.16-0.78,7.48-2.35
		c2.33-1.56,4.21-2.35,5.65-2.35c2.54,0,5.62,2.24,9.26,6.72c1.95,2.45,2.92,4.65,2.92,6.59c0,3.21-2.32,6.21-6.97,9
		c-4.82,3.38-10.74,5.07-17.76,5.07c-7.86,0-15.43-2.83-22.7-8.5c-3.47-2.7-6.3-6.32-8.5-10.84c-2.2-4.52-3.3-9.51-3.3-14.96
		c0-5.45,1.1-10.4,3.3-14.84c2.2-4.44,5.03-8.01,8.5-10.72c7.02-5.58,14.5-8.37,22.45-8.37c3.21,0,6.34,0.44,9.39,1.33
		c3.04,0.89,5.28,1.75,6.72,2.6l2.03,1.27c1.52,1.01,2.7,1.82,3.55,2.41c2.2,1.69,3.3,3.61,3.3,5.77c0,2.16-0.89,4.59-2.66,7.29
		c-3.04,4.65-5.96,6.98-8.75,6.98c-1.61,0-3.89-0.93-6.85-2.79c-1.52-1.44-3.69-2.16-6.53-2.16s-5.47,1.02-7.93,3.04
		C488.71,363,487.48,365.81,487.48,369.4z"/>
	<path class="st2" d="M532.12,315.69c0-1.94,0.06-3.4,0.19-4.38c0.12-0.97,0.49-2.09,1.08-3.36c1.18-2.28,4.48-3.42,9.89-3.42
		c5.16,0,8.37,1.14,9.64,3.42c0.67,1.27,1.07,2.41,1.2,3.43c0.13,1.01,0.19,2.49,0.19,4.44v58.72c0,3.04,0.25,4.96,0.76,5.77
		c0.51,0.8,1.63,1.2,3.36,1.2c1.73,0,2.89,0.07,3.48,0.19c0.59,0.13,1.31,0.49,2.16,1.08c1.69,1.1,2.54,4.1,2.54,9
		c0,5.33-0.85,8.58-2.54,9.76c-2.2,1.52-7.44,1.78-15.72,0.76c-6.51-0.85-10.74-3-12.68-6.47c-2.37-4.14-3.55-10.73-3.55-19.78
		V315.69z"/>
	<path class="st2" d="M594.45,323.62c-0.63,1.23-1.75,2.1-3.36,2.6c-1.61,0.51-3.74,0.76-6.41,0.76c-2.66,0-4.8-0.26-6.4-0.76
		s-2.72-1.39-3.36-2.66s-1.02-2.39-1.14-3.36c-0.13-0.97-0.19-2.43-0.19-4.38c0-1.95,0.06-3.4,0.19-4.38
		c0.12-0.97,0.49-2.05,1.08-3.24c1.18-2.28,4.48-3.42,9.89-3.42c5.33,0,8.53,1.14,9.64,3.42c0.67,1.27,1.07,2.39,1.2,3.36
		c0.13,0.97,0.19,2.43,0.19,4.37c0,1.95-0.06,3.41-0.19,4.38C595.47,321.3,595.09,322.4,594.45,323.62z M573.59,347.14
		c0-1.95,0.06-3.4,0.19-4.38c0.12-0.97,0.49-2.09,1.08-3.36c1.18-2.2,4.48-3.3,9.89-3.3c4.06,0,6.93,0.72,8.62,2.16
		c1.43,1.18,2.2,3,2.28,5.45c0.08,0.85,0.13,2.07,0.13,3.67v44.39c0,1.95-0.06,3.41-0.19,4.38c-0.13,0.97-0.53,2.09-1.2,3.36
		c-1.1,2.2-4.36,3.3-9.77,3.3c-5.33,0-8.58-1.14-9.76-3.43c-0.59-1.26-0.95-2.36-1.08-3.3c-0.13-0.93-0.19-2.4-0.19-4.44V347.14z"/>
	<path class="st2" d="M626.86,369.4c0,3.6,1.18,6.38,3.55,8.37c2.37,1.99,4.88,2.98,7.54,2.98c2.67,0,5.16-0.78,7.48-2.35
		c2.33-1.56,4.21-2.35,5.65-2.35c2.54,0,5.62,2.24,9.26,6.72c1.95,2.45,2.92,4.65,2.92,6.59c0,3.21-2.32,6.21-6.97,9
		c-4.82,3.38-10.74,5.07-17.76,5.07c-7.86,0-15.43-2.83-22.7-8.5c-3.47-2.7-6.3-6.32-8.5-10.84c-2.2-4.52-3.3-9.51-3.3-14.96
		c0-5.45,1.1-10.4,3.3-14.84c2.2-4.44,5.03-8.01,8.5-10.72c7.02-5.58,14.5-8.37,22.45-8.37c3.21,0,6.34,0.44,9.39,1.33
		c3.04,0.89,5.28,1.75,6.72,2.6l2.03,1.27c1.52,1.01,2.7,1.82,3.55,2.41c2.2,1.69,3.3,3.61,3.3,5.77c0,2.16-0.89,4.59-2.66,7.29
		c-3.04,4.65-5.96,6.98-8.75,6.98c-1.61,0-3.89-0.93-6.85-2.79c-1.52-1.44-3.69-2.16-6.53-2.16s-5.47,1.02-7.93,3.04
		C628.08,363,626.86,365.81,626.86,369.4z"/>
	<path class="st2" d="M670.73,396.86c-1.6-1.02-2.41-2.62-2.41-4.82s1.6-5.54,4.82-10.02c0.93-1.44,2.43-2.16,4.5-2.16
		c2.07,0,4.88,1.04,8.43,3.11c3.55,2.07,6.77,3.11,9.64,3.11c5.16,0,7.74-1.02,7.74-3.04c0-1.6-2.83-2.79-8.5-3.55
		c-5.33-0.76-10.61-2.75-15.85-5.96c-2.45-1.52-4.48-3.91-6.08-7.17c-1.61-3.25-2.41-7.12-2.41-11.6c0-13.36,9.17-20.04,27.52-20.04
		c6,0,12.17,1.43,18.51,4.31c2.96,1.36,4.44,3.04,4.44,5.07c0,2.03-0.93,4.53-2.79,7.48c-1.86,2.96-3.76,4.44-5.71,4.44
		c-1.01,0-2.89-0.63-5.64-1.9c-2.75-1.27-5.73-1.9-8.94-1.9c-4.99,0-7.48,0.93-7.48,2.79c0,2.53,2.87,4.18,8.62,4.94
		c5.58,0.59,10.99,2.2,16.23,4.82c2.45,1.19,4.5,3.24,6.15,6.15c1.65,2.92,2.47,6.57,2.47,10.97s-0.82,8.14-2.47,11.22
		c-1.65,3.09-3.95,5.39-6.91,6.91c-5.41,2.62-12.2,3.93-20.36,3.93S678.26,401.6,670.73,396.86z"/>
</g>
<path class="st1" d="M335.68,263.18c-8.18-4.38-18.64-1.05-22.77,7.43c-0.84,1.72-1.85,2.02-3.51,2.01
	c-8.73-0.06-17.46-0.03-26.18-0.03c-2,0-3.99,0-6.21,0c0-4.04,0-7.68,0-11.32c0-3.7,0-7.4,0-11.28c7.42,0,14.31,0.04,21.2-0.01
	c4.89-0.04,7.05-2.24,7.07-7.1c0.03-6.29,0.09-12.59-0.04-18.88c-0.04-2.23,0.44-3.55,2.63-4.74c8.63-4.71,11.14-15.46,5.85-23.91
	c-4.92-7.86-15.97-10-23.79-4.61c-10.38,7.15-9.4,22.8,1.76,28.86c0.88,0.48,2.13,1.38,2.15,2.12c0.18,5.53,0.1,11.07,0.1,16.62
	c-5.86,0-11.29,0-17.05,0c0-3.71,0-7.21,0-10.96c-5.69,0-11.03,0-16.53,0c-0.08-1.03-0.19-1.81-0.2-2.6
	c-0.01-8.12,0.04-16.24-0.04-24.36c-0.02-1.72,0.46-2.6,2.09-3.43c6.6-3.35,10.26-11.11,8.83-18.14
	c-1.52-7.47-7.58-12.9-15.21-13.64c-7.2-0.7-14.44,3.72-17.25,10.53c-2.71,6.58-0.96,15.65,5.33,19.28
	c4.99,2.88,4.96,6.4,4.84,10.86c-0.16,6.09-0.03,12.18-0.05,18.27c0,0.99-0.08,1.97-0.15,3.36c-5.69,0-11.2,0-16.65,0
	c0,22.77,0,45.14,0,67.72c3.77,0,7.29,0,11.16,0h11.6c0-0.05,0-0.09,0-0.14c7.45,0,14.79,0,22.46,0c0-3.89,0-7.38,0-10.74
	c0.54-0.2,0.72-0.33,0.9-0.33c10.76-0.04,21.51-0.11,32.27,0c0.89,0.01,1.88,1.12,2.64,1.89c2.23,2.29,4,5.25,6.62,6.9
	c7.92,4.99,18.8,1.68,23.3-6.66C347.3,277.93,344.09,267.69,335.68,263.18z"/>
<g>
	<path class="st3" d="M339.13,449.42c2.01,0.85,4.59,1.38,6.74,1.38c2.96,0,5.18-1.34,5.11-4.34c-0.1-4.69-12.98-4.09-12.98-11.74
		c0-4.48,3.39-6.6,8.29-6.6c2.29,0,4.83,0.46,7.02,1.38l-0.56,2.75c-1.94-0.85-4.51-1.38-6.67-1.38c-2.86,0-5.01,1.31-4.94,4.09
		c0.11,4.69,13.01,4.05,13.01,11.74c0,4.73-3.53,6.88-8.53,6.88c-2.33,0-4.87-0.49-7.05-1.41L339.13,449.42z"/>
	<path class="st3" d="M365.45,435.99c4.8,0,7.9,2.79,7.9,8.82c0,6.03-3.1,8.78-7.9,8.78c-4.83,0-7.93-2.75-7.93-8.78
		C357.52,438.77,360.62,435.99,365.45,435.99z M365.45,451.05c3,0,5.04-1.83,5.04-6.24c0-4.41-2.05-6.28-5.04-6.28
		c-3.03,0-5.08,1.87-5.08,6.28C360.37,449.21,362.42,451.05,365.45,451.05z"/>
	<path class="st3" d="M380.34,426.5V449c0,2.19,1.2,2.43,4.41,1.48l0.25,2.43c-1.31,0.39-2.43,0.67-3.74,0.67
		c-2.15,0-3.74-1.13-3.74-4.27v-22.64L380.34,426.5z"/>
	<path class="st3" d="M398.76,436.45l2.82-0.18v16.96h-2.47l-0.35-1.9c-2.4,1.38-4.55,2.26-6.42,2.26c-2.4,0-4.76-1.31-4.76-5.57
		v-11.57l2.82-0.18v11.21c0,2.36,1.09,3.46,2.68,3.46c1.76,0,3.84-1.09,5.68-2.08V436.45z"/>
	<path class="st3" d="M405.75,444.8c0-6.42,3.49-8.82,7.76-8.82c1.55,0,3.21,0.32,4.8,0.81l-0.39,2.5
		c-1.48-0.49-2.89-0.78-4.16-0.78c-3.1,0-5.15,1.76-5.15,6.28c0,4.48,2.05,6.24,5.15,6.24c1.27,0,2.68-0.32,4.16-0.78l0.39,2.5
		c-1.59,0.53-3.24,0.81-4.8,0.81C409.24,453.59,405.75,451.22,405.75,444.8z"/>
	<path class="st3" d="M425.37,431.83c0,1.06-0.78,1.83-1.83,1.83s-1.83-0.78-1.83-1.83c0-1.06,0.78-1.83,1.83-1.83
		S425.37,430.77,425.37,431.83z M424.94,436.27v16.96h-2.82v-16.79L424.94,436.27z"/>
	<path class="st3" d="M437.04,435.99c4.8,0,7.9,2.79,7.9,8.82c0,6.03-3.1,8.78-7.9,8.78c-4.83,0-7.93-2.75-7.93-8.78
		C429.11,438.77,432.21,435.99,437.04,435.99z M437.04,451.05c3,0,5.04-1.83,5.04-6.24c0-4.41-2.05-6.28-5.04-6.28
		c-3.03,0-5.08,1.87-5.08,6.28C431.96,449.21,434.01,451.05,437.04,451.05z"/>
	<path class="st3" d="M451.93,453.23h-2.82v-16.79l2.82-0.18v2.01c2.43-1.41,4.55-2.29,6.42-2.29c2.4,0,4.76,1.31,4.76,5.61v11.64
		h-2.82v-11.14c0-2.36-1.09-3.42-2.68-3.42c-1.76,0-3.84,1.06-5.68,2.04V453.23z"/>
	<path class="st3" d="M470.11,445.79c0.14,3.99,2.29,5.33,5.11,5.33c1.59,0,3.24-0.42,4.9-0.95l0.39,2.36
		c-1.8,0.67-3.63,1.06-5.54,1.06c-4.37,0-7.69-2.33-7.69-8.78c0-6.31,3.17-8.82,7.55-8.82c4.34,0,7.23,3.24,6.31,9.8H470.11z
		 M470.14,443.57h8.39c0.11-3.32-1.41-5.18-3.81-5.18C472.05,438.38,470.35,440.04,470.14,443.57z"/>
	<path class="st3" d="M485.74,450.13c1.41,0.6,3.32,0.99,4.83,0.99c1.73,0,3.14-0.63,3.07-2.57c-0.04-3.1-8.61-2.33-8.61-7.9
		c0-3.17,2.4-4.65,5.85-4.65c1.66,0,3.42,0.35,5.04,1.02l-0.42,2.43c-1.31-0.56-3.21-0.99-4.66-0.99c-1.66,0-3.03,0.6-2.96,2.33
		c0.04,3.07,8.6,2.33,8.6,7.9c0,3.35-2.54,4.9-6.14,4.9c-1.66,0-3.46-0.35-5.01-1.02L485.74,450.13z"/>
	<path class="st3" d="M509.94,428.48h15.45l-0.21,2.75h-12.2v8.36h10.54l-0.18,2.79h-10.37v8.08h12.41l-0.21,2.79h-15.23V428.48z"/>
	<path class="st3" d="M540.7,426.68l2.82-0.18v26.73h-2.47l-0.35-1.94c-2.26,1.38-4.34,2.29-6.17,2.29c-3.46,0-5.96-2.68-5.96-8.78
		c0-6.31,3.28-8.82,7.16-8.82c1.62,0,3.35,0.46,4.97,1.16V426.68z M536.08,438.53c-2.54,0-4.65,1.66-4.65,6.31
		c0,4.44,1.55,6.1,3.63,6.1c1.76,0,3.81-1.09,5.64-2.08v-9.27C539.33,439.02,537.56,438.53,536.08,438.53z"/>
	<path class="st3" d="M559.58,436.45l2.82-0.18v16.96h-2.47l-0.35-1.9c-2.4,1.38-4.55,2.26-6.42,2.26c-2.4,0-4.76-1.31-4.76-5.57
		v-11.57l2.82-0.18v11.21c0,2.36,1.09,3.46,2.68,3.46c1.76,0,3.84-1.09,5.68-2.08V436.45z"/>
	<path class="st3" d="M566.57,444.8c0-6.42,3.49-8.82,7.76-8.82c1.55,0,3.21,0.32,4.8,0.81l-0.39,2.5
		c-1.48-0.49-2.89-0.78-4.16-0.78c-3.1,0-5.15,1.76-5.15,6.28c0,4.48,2.05,6.24,5.15,6.24c1.27,0,2.68-0.32,4.16-0.78l0.39,2.5
		c-1.59,0.53-3.24,0.81-4.8,0.81C570.06,453.59,566.57,451.22,566.57,444.8z"/>
	<path class="st3" d="M591.94,441.59c0-2.26-1.02-3.07-2.64-3.07c-1.59,0-3.77,0.6-6.28,1.41l-0.42-2.47
		c2.33-0.85,5.01-1.48,7.02-1.48c3.14,0,5.15,1.41,5.15,5.54v11.71h-2.15l-0.39-1.97c-1.87,1.59-3.99,2.33-5.82,2.33
		c-2.43,0-4.51-1.38-4.51-4.44c0-3.14,1.97-5.08,10.05-5.71V441.59z M591.94,448.93v-3.35c-5.99,0.49-7.3,1.76-7.3,3.39
		c0,1.76,1.2,2.29,2.22,2.29C588.73,451.26,590.63,450.27,591.94,448.93z"/>
	<path class="st3" d="M600.76,438.88h-2.82l0.21-2.54h2.61v-5.25l2.82-0.18v5.43h5.18l-0.21,2.54h-4.97v8.36
		c0,2.15,0.56,3.81,2.82,3.81c0.67,0,1.76-0.14,2.71-0.39l0.25,2.36c-1.41,0.42-2.43,0.56-3.46,0.56c-4.02,0-5.15-2.96-5.15-6.1
		V438.88z"/>
	<path class="st3" d="M616.18,431.83c0,1.06-0.78,1.83-1.83,1.83c-1.06,0-1.83-0.78-1.83-1.83c0-1.06,0.78-1.83,1.83-1.83
		C615.4,429.99,616.18,430.77,616.18,431.83z M615.76,436.27v16.96h-2.82v-16.79L615.76,436.27z"/>
	<path class="st3" d="M621.65,436.27l5.01,14.07l5.01-14.07l3.07,0.18l-6.24,16.79h-3.63l-6.28-16.79L621.65,436.27z"/>
	<path class="st3" d="M646.59,441.59c0-2.26-1.02-3.07-2.64-3.07c-1.59,0-3.77,0.6-6.28,1.41l-0.42-2.47
		c2.33-0.85,5.01-1.48,7.02-1.48c3.14,0,5.15,1.41,5.15,5.54v11.71h-2.15l-0.39-1.97c-1.87,1.59-3.99,2.33-5.82,2.33
		c-2.43,0-4.51-1.38-4.51-4.44c0-3.14,1.97-5.08,10.05-5.71V441.59z M646.59,448.93v-3.35c-5.99,0.49-7.3,1.76-7.3,3.39
		c0,1.76,1.2,2.29,2.22,2.29C643.38,451.26,645.29,450.27,646.59,448.93z"/>
	<path class="st3" d="M654.54,450.13c1.41,0.6,3.32,0.99,4.83,0.99c1.73,0,3.14-0.63,3.07-2.57c-0.04-3.1-8.6-2.33-8.6-7.9
		c0-3.17,2.4-4.65,5.85-4.65c1.66,0,3.42,0.35,5.04,1.02l-0.42,2.43c-1.31-0.56-3.21-0.99-4.66-0.99c-1.66,0-3.03,0.6-2.96,2.33
		c0.04,3.07,8.6,2.33,8.6,7.9c0,3.35-2.54,4.9-6.14,4.9c-1.66,0-3.46-0.35-5.01-1.02L654.54,450.13z"/>
</g>
</svg>
